<svg xmlns="http://www.w3.org/2000/svg" width="2300" height="1020" viewBox="0 0 2300 1020" font-family="Segoe UI, Arial, sans-serif">
<rect x="0" y="0" width="2300" height="1020" fill="white"/>
<text x="30" y="40" font-size="22" font-weight="bold" fill="#0b2545">BC90 taut-mooring line model — updated with 3-line group / plan-view variables</text>
<text x="30" y="64" font-size="14" fill="#555">Companion figure to taut moorling line model.pdf and docs/BC90_METHODOLOGY_REPORT.md (Sections 4a, 4b)</text>
<defs><marker id="arrow" markerWidth="10" markerHeight="10" refX="8" refY="3" orient="auto"><path d="M0,0 L8,3 L0,6 Z" fill="#111"/></marker><marker id="arrowRed" markerWidth="10" markerHeight="10" refX="8" refY="3" orient="auto"><path d="M0,0 L8,3 L0,6 Z" fill="#b3401f"/></marker></defs>
<rect x="20" y="84" width="560" height="256" fill="#f4f7fb" stroke="#c9d6e3"/>
<text x="32" y="106" font-size="14" fill="#111">F : mooring tension force (single line)</text>
<text x="32" y="126" font-size="14" fill="#111">Fx : horizontal component of F  =  F·cos(θ)</text>
<text x="32" y="146" font-size="14" fill="#111">Fz : vertical (downward) component of F  =  F·sin(θ)</text>
<text x="32" y="166" font-size="14" fill="#111">     [missing from source PDF — see §5a]</text>
<text x="32" y="186" font-size="14" fill="#111">θ : mooring line angle from horizontal (elevation view)</text>
<text x="32" y="206" font-size="14" fill="#111">K_ml : single-line axial stiffness   F = K_ml·d_ml</text>
<text x="32" y="226" font-size="14" fill="#111">k_ml,x : single-line HORIZONTAL stiffness = K_ml·cos²(θ)</text>
<text x="32" y="246" font-size="14" fill="#111">d_ml : displacement of mooring line (along its own axis)</text>
<text x="32" y="266" font-size="14" fill="#111">dx_ml : horizontal component of d_ml = d_ml·cos(θ)</text>
<text x="32" y="286" font-size="14" fill="#111">d_sb_fl : seabed-to-fairlead height</text>
<text x="32" y="306" font-size="14" fill="#111">R_a : plan-view radius, MP centerline to anchor</text>
<text x="32" y="326" font-size="14" fill="#111">L_ml : taut line length = sqrt(R_a^2 + d_sb_fl^2)</text>
<line x1="40" y1="700" x2="1160" y2="700" stroke="#1f5aa6" stroke-width="2"/>
<text x="40" y="722" font-size="15" fill="#1f5aa6">seabed</text>
<rect x="650" y="110" width="44" height="590" fill="#1f5aa6"/>
<text x="656.0" y="405.0" font-size="18" fill="white" font-weight="bold">MP</text>
<line x1="672.0" y1="200" x2="1080" y2="700" stroke="#1f5aa6" stroke-width="2"/>
<text x="894.0" y="444.0" font-size="15" fill="#1f5aa6" transform="rotate(50.78555486469748 894.0 444.0)">taut, L_ml</text>
<circle cx="1080" cy="700" r="6" fill="#333"/>
<text x="1070" y="722" font-size="14" fill="#333">anchor</text>
<circle cx="672.0" cy="200" r="7" fill="#e07a1f"/>
<text x="602.0" y="186" font-size="15" fill="#111">Fairlead point</text>
<line x1="672.0" y1="200" x2="802.0" y2="200" stroke="#111" stroke-width="2" marker-end="url(#arrow)"/>
<text x="810.0" y="196" font-size="16" fill="#111">Fx</text>
<line x1="672.0" y1="200" x2="672.0" y2="290" stroke="#b3401f" stroke-width="2" stroke-dasharray="6,4" marker-end="url(#arrowRed)"/>
<text x="680.0" y="308" font-size="15" fill="#b3401f">Fz (new, §5a)</text>
<line x1="672.0" y1="200" x2="810.72" y2="370.0" stroke="#111" stroke-width="2" marker-end="url(#arrow)"/>
<text x="820.72" y="366.0" font-size="16" fill="#111">F</text>
<path d="M 1010.0 700.0 A 70 70 0 0 0 1035.7 645.8" fill="none" stroke="#111" stroke-width="1.5"/>
<text x="1004" y="686" font-size="16" fill="#111">θ</text>
<line x1="610" y1="200" x2="610" y2="700" stroke="#555" stroke-width="1" marker-start="url(#arrow)" marker-end="url(#arrow)"/>
<text x="538" y="450.0" font-size="16" fill="#333">d_sb_fl</text>
<line x1="672.0" y1="746" x2="1080" y2="746" stroke="#555" stroke-width="1" marker-start="url(#arrow)" marker-end="url(#arrow)"/>
<text x="856.0" y="766" font-size="16" fill="#333">R_a</text>
<rect x="610" y="770" width="530" height="86" fill="#fbf6ee" stroke="#e0c9a0"/>
<text x="622" y="790" font-size="15" fill="#111">Fx = F·cos(θ)     F = K_ml·d_ml     dx_ml = d_ml·cos(θ)</text>
<text x="622" y="814" font-size="15" fill="#111">Fz = F·sin(θ)   (new — vertical/axial add, §5a — pulls fairlead down, worsens local buckling)</text>
<text x="622" y="838" font-size="15" fill="#111">k_ml,x = K_ml·cos²(θ)   (single-line HORIZONTAL stiffness — feeds the 3-line group result in Panel B)</text>
<text x="30" y="902" font-size="17" font-weight="bold" fill="#0b2545">Panel A — elevation (side) view, single line</text>
<circle cx="1780" cy="430" r="26" fill="#1f5aa6"/>
<text x="1766" y="435" font-size="14" fill="white" font-weight="bold">MP</text>
<line x1="1780" y1="430" x2="1780.0" y2="160.0" stroke="#1f5aa6" stroke-width="2"/>
<circle cx="1780.0" cy="160.0" r="7" fill="#333"/>
<text x="1780.0" y="138.4" font-size="15" fill="#333" text-anchor="middle">φ₀</text>
<line x1="1780" y1="430" x2="1546.2" y2="565.0" stroke="#1f5aa6" stroke-width="2"/>
<circle cx="1546.2" cy="565.0" r="7" fill="#333"/>
<text x="1527.5" y="575.8" font-size="15" fill="#333" text-anchor="middle">φ₀+120°</text>
<line x1="1780" y1="430" x2="2013.8" y2="565.0" stroke="#1f5aa6" stroke-width="2"/>
<circle cx="2013.8" cy="565.0" r="7" fill="#333"/>
<text x="2032.5" y="575.8" font-size="15" fill="#333" text-anchor="middle">φ₀+240°</text>
<text x="1790.0" y="281.5" font-size="15" fill="#333">R_a</text>
<line x1="1780" y1="430" x2="1864.3" y2="359.3" stroke="#b3401f" stroke-width="2.5" stroke-dasharray="7,4" marker-end="url(#arrowRed)"/>
<text x="1874.3" y="359.3" font-size="16" fill="#b3401f">u (displacement), heading φ_load</text>
<path d="M 1822.1 394.6 A 55 55 0 0 1 1780.0 375.0" fill="none" stroke="#111" stroke-width="1.5"/>
<text x="1812.5" y="360.2" font-size="16" fill="#111">ψ₁</text>
<rect x="1410" y="710" width="740" height="110" fill="#fbf6ee" stroke="#e0c9a0"/>
<text x="1422" y="730" font-size="15" fill="#111">ψ_i = φ_i − φ_load     (line i azimuth minus load heading)</text>
<text x="1422" y="754" font-size="15" fill="#111">d_ml,i = |u|·cos(θ)·cos(ψ_i)      (elongation of line i)</text>
<text x="1422" y="778" font-size="15" fill="#111">ΔF_i = K_ml·d_ml,i      (incremental tension in line i)</text>
<text x="1422" y="802" font-size="15" fill="#111">K_ml,net = 1.5·K_ml·cos²(θ) = 1.5·k_ml,x   (isotropic, any φ_load, exact for N_ml=3)</text>
<text x="1410" y="866" font-size="17" font-weight="bold" fill="#0b2545">Panel B — plan view, N_ml = 3 (new)</text>
</svg>