<svg xmlns="http://www.w3.org/2000/svg" width="2300" height="1700" viewBox="0 0 2300 1700" font-family="Segoe UI, Arial, sans-serif">
<rect x="0" y="0" width="2300" height="1700" fill="white"/>
<text x="30" y="40" font-size="22" font-weight="bold" fill="#0b2545">BC90 taut-mooring line model — single line, 3-line group, and redundant-force method</text>
<text x="30" y="64" font-size="14" fill="#555">Companion figure to taut moorling line model.pdf and docs/BC90_METHODOLOGY_REPORT.md (Sections 4a, 4b, 4c)</text>
<defs><marker id="arrow" markerWidth="10" markerHeight="10" refX="8" refY="3" orient="auto"><path d="M0,0 L8,3 L0,6 Z" fill="#111"/></marker><marker id="arrowRed" markerWidth="10" markerHeight="10" refX="8" refY="3" orient="auto"><path d="M0,0 L8,3 L0,6 Z" fill="#b3401f"/></marker></defs>

<!-- ================= Panel A: single-line elevation ================= -->
<rect x="20" y="84" width="560" height="276" fill="#f4f7fb" stroke="#c9d6e3"/>
<text x="32" y="106" font-size="14" fill="#111">F : mooring tension force (single line)</text>
<text x="32" y="126" font-size="14" fill="#111">Fx : horizontal component of F  =  F·cos(θ)</text>
<text x="32" y="146" font-size="14" fill="#111">Fz : vertical (downward) component of F  =  F·sin(θ)</text>
<text x="32" y="166" font-size="14" fill="#111">     [missing from source PDF — see §5a]</text>
<text x="32" y="186" font-size="14" fill="#111">θ : mooring line angle from horizontal (elevation view)</text>
<text x="32" y="206" font-size="14" fill="#111">K_ml : single-line axial stiffness   F = K_ml·d_ml</text>
<text x="32" y="226" font-size="14" fill="#111">k_ml,x : single-line HORIZONTAL stiffness = K_ml·cos²(θ)</text>
<text x="32" y="246" font-size="14" fill="#111">d_ml : displacement of mooring line (along its own axis)</text>
<text x="32" y="266" font-size="14" fill="#111">dx_ml : horizontal component of d_ml = d_ml·cos(θ)</text>
<text x="32" y="286" font-size="14" fill="#111">d_sb_fl : seabed-to-fairlead height</text>
<text x="32" y="306" font-size="14" fill="#111">R_a : plan-view radius, MP centerline to anchor</text>
<text x="32" y="326" font-size="14" fill="#111">L_ml : taut line length = sqrt(R_a^2 + d_sb_fl^2)</text>
<text x="32" y="346" font-size="14" fill="#111">T0 : single-line pretension at the undisplaced (neutral) position</text>

<line x1="40" y1="700" x2="1160" y2="700" stroke="#1f5aa6" stroke-width="2"/>
<text x="40" y="722" font-size="15" fill="#1f5aa6">seabed</text>
<rect x="650" y="110" width="44" height="590" fill="#1f5aa6"/>
<text x="656.0" y="405.0" font-size="18" fill="white" font-weight="bold">MP</text>
<line x1="672.0" y1="200" x2="1080" y2="700" stroke="#1f5aa6" stroke-width="2"/>
<text x="894.0" y="444.0" font-size="15" fill="#1f5aa6" transform="rotate(50.78555486469748 894.0 444.0)">taut, L_ml</text>
<circle cx="1080" cy="700" r="6" fill="#333"/>
<text x="1070" y="722" font-size="14" fill="#333">anchor</text>
<circle cx="672.0" cy="200" r="7" fill="#e07a1f"/>
<text x="602.0" y="186" font-size="15" fill="#111">Fairlead point</text>
<line x1="672.0" y1="200" x2="802.0" y2="200" stroke="#111" stroke-width="2" marker-end="url(#arrow)"/>
<text x="810.0" y="196" font-size="16" fill="#111">Fx</text>
<line x1="672.0" y1="200" x2="672.0" y2="290" stroke="#b3401f" stroke-width="2" stroke-dasharray="6,4" marker-end="url(#arrowRed)"/>
<text x="680.0" y="308" font-size="15" fill="#b3401f">Fz (new, §5a)</text>
<line x1="672.0" y1="200" x2="810.72" y2="370.0" stroke="#111" stroke-width="2" marker-end="url(#arrow)"/>
<text x="820.72" y="366.0" font-size="16" fill="#111">F</text>
<path d="M 1010.0 700.0 A 70 70 0 0 0 1035.7 645.8" fill="none" stroke="#111" stroke-width="1.5"/>
<text x="1004" y="686" font-size="16" fill="#111">θ</text>
<line x1="610" y1="200" x2="610" y2="700" stroke="#555" stroke-width="1" marker-start="url(#arrow)" marker-end="url(#arrow)"/>
<text x="538" y="450.0" font-size="16" fill="#333">d_sb_fl</text>
<line x1="672.0" y1="746" x2="1080" y2="746" stroke="#555" stroke-width="1" marker-start="url(#arrow)" marker-end="url(#arrow)"/>
<text x="856.0" y="766" font-size="16" fill="#333">R_a</text>
<rect x="610" y="770" width="530" height="86" fill="#fbf6ee" stroke="#e0c9a0"/>
<text x="622" y="790" font-size="15" fill="#111">Fx = F·cos(θ)     F = K_ml·d_ml     dx_ml = d_ml·cos(θ)</text>
<text x="622" y="814" font-size="15" fill="#111">Fz = F·sin(θ)   (new — vertical/axial add, §5a — pulls fairlead down, worsens local buckling)</text>
<text x="622" y="838" font-size="15" fill="#111">k_ml,x = K_ml·cos²(θ)   (single-line HORIZONTAL stiffness — feeds the 3-line group result in Panel B)</text>
<text x="30" y="902" font-size="17" font-weight="bold" fill="#0b2545">Panel A — elevation (side) view, single line</text>

<!-- ================= Panel B: plan view, 3-line group ================= -->
<circle cx="1780" cy="430" r="26" fill="#1f5aa6"/>
<text x="1766" y="435" font-size="14" fill="white" font-weight="bold">MP</text>
<line x1="1780" y1="430" x2="1780.0" y2="160.0" stroke="#1f5aa6" stroke-width="2"/>
<circle cx="1780.0" cy="160.0" r="7" fill="#333"/>
<text x="1780.0" y="138.4" font-size="15" fill="#333" text-anchor="middle">φ₀</text>
<line x1="1780" y1="430" x2="1546.2" y2="565.0" stroke="#1f5aa6" stroke-width="2"/>
<circle cx="1546.2" cy="565.0" r="7" fill="#333"/>
<text x="1527.5" y="575.8" font-size="15" fill="#333" text-anchor="middle">φ₀+120°</text>
<line x1="1780" y1="430" x2="2013.8" y2="565.0" stroke="#1f5aa6" stroke-width="2"/>
<circle cx="2013.8" cy="565.0" r="7" fill="#333"/>
<text x="2032.5" y="575.8" font-size="15" fill="#333" text-anchor="middle">φ₀+240°</text>
<text x="1790.0" y="281.5" font-size="15" fill="#333">R_a</text>
<line x1="1780" y1="430" x2="1864.3" y2="359.3" stroke="#b3401f" stroke-width="2.5" stroke-dasharray="7,4" marker-end="url(#arrowRed)"/>
<text x="1874.3" y="359.3" font-size="16" fill="#b3401f">u (displacement), heading φ_load</text>
<path d="M 1822.1 394.6 A 55 55 0 0 1 1780.0 375.0" fill="none" stroke="#111" stroke-width="1.5"/>
<text x="1812.5" y="360.2" font-size="16" fill="#111">ψ₁</text>
<rect x="1410" y="710" width="740" height="130" fill="#fbf6ee" stroke="#e0c9a0"/>
<text x="1422" y="730" font-size="15" fill="#111">ψ_i = φ_i − φ_load     (line i azimuth minus load heading)</text>
<text x="1422" y="754" font-size="15" fill="#111">d_ml,i = |u|·cos(θ)·cos(ψ_i)      (elongation of line i)</text>
<text x="1422" y="778" font-size="15" fill="#111">ΔF_i = K_ml·d_ml,i      T_i = T0 + ΔF_i      (incremental / total tension in line i)</text>
<text x="1422" y="802" font-size="15" fill="#111">K_ml,net = 1.5·K_ml·cos²(θ) = 1.5·k_ml,x   (isotropic, any φ_load, exact for N_ml=3)</text>
<text x="1422" y="826" font-size="15" fill="#111">Line-level T_i is NOT isotropic — governs mooring-line ULS / slack checks (§5, §9a)</text>
<text x="1410" y="866" font-size="17" font-weight="bold" fill="#0b2545">Panel B — plan view, N_ml = 3</text>

<!-- ================= Panel C: elevation, beam with two elastic supports ================= -->
<text x="30" y="960" font-size="14" fill="#555">Panel C: simplified elevation of the redundant-force model (§4c) — pile+tower as a beam with a foundation spring at mudline and a mooring spring at the fairlead.</text>

<line x1="150" y1="1420" x2="2150" y2="1420" stroke="#1f5aa6" stroke-width="2"/>
<text x="160" y="1442" font-size="15" fill="#1f5aa6">mudline</text>

<line x1="1150" y1="1420" x2="1150" y2="1280" stroke="#1f5aa6" stroke-width="7"/>
<line x1="1150" y1="1280" x2="1150" y2="1040" stroke="#1f5aa6" stroke-width="3"/>
<line x1="1128" y1="1280" x2="1172" y2="1280" stroke="#555" stroke-width="1.5"/>
<text x="1180" y="1284" font-size="13" fill="#555">transition piece</text>
<circle cx="1150" cy="1040" r="8" fill="#1f5aa6"/>
<text x="1165" y="1030" font-size="15" fill="#111">hub</text>

<!-- foundation spring, zigzag -->
<path d="M 1150 1420 L 1140 1435 L 1160 1450 L 1140 1465 L 1160 1480 L 1150 1495" fill="none" stroke="#333" stroke-width="2"/>
<line x1="1090" y1="1495" x2="1210" y2="1495" stroke="#333" stroke-width="2"/>
<line x1="1100" y1="1495" x2="1085" y2="1515" stroke="#333" stroke-width="1"/>
<line x1="1130" y1="1495" x2="1115" y2="1515" stroke="#333" stroke-width="1"/>
<line x1="1160" y1="1495" x2="1145" y2="1515" stroke="#333" stroke-width="1"/>
<line x1="1190" y1="1495" x2="1175" y2="1515" stroke="#333" stroke-width="1"/>
<text x="1230" y="1460" font-size="15" fill="#333">K_L, K_R — foundation springs (mudline, §4)</text>

<!-- fairlead + mooring spring -->
<circle cx="1150" cy="1340" r="7" fill="#e07a1f"/>
<text x="770" y="1310" font-size="15" fill="#111">fairlead (height a = d_sb_fl)</text>
<path d="M 1150 1340 L 1210 1355 L 1270 1370 L 1330 1385 L 1390 1400 L 1450 1420" fill="none" stroke="#b3401f" stroke-width="2.5"/>
<circle cx="1450" cy="1420" r="6" fill="#333"/>
<text x="1250" y="1345" font-size="15" fill="#b3401f">K_ml,net (isotropic 3-line group, §4b)</text>

<line x1="1150" y1="1340" x2="1090" y2="1340" stroke="#b3401f" stroke-width="2.5" marker-end="url(#arrowRed)"/>
<text x="1090" y="1362" font-size="15" fill="#b3401f" text-anchor="end">F_ml (redundant mooring reaction, §4c)</text>

<!-- applied loads -->
<line x1="1150" y1="1040" x2="1230" y2="1040" stroke="#111" stroke-width="2" marker-end="url(#arrow)"/>
<text x="1240" y="1035" font-size="15" fill="#111">F_thrust  (applied at height h = hub height + water depth)</text>
<line x1="1150" y1="1200" x2="1220" y2="1200" stroke="#111" stroke-width="2" marker-end="url(#arrow)"/>
<text x="1230" y="1195" font-size="15" fill="#111">F_wave  (applied at height z_wave_eq = M_wave/F_wave)</text>

<!-- dimension lines -->
<line x1="1000" y1="1420" x2="1000" y2="1340" stroke="#555" stroke-width="1" marker-start="url(#arrow)" marker-end="url(#arrow)"/>
<text x="985" y="1385" font-size="15" fill="#333">a</text>
<line x1="870" y1="1420" x2="870" y2="1040" stroke="#555" stroke-width="1" marker-start="url(#arrow)" marker-end="url(#arrow)"/>
<text x="800" y="1235" font-size="15" fill="#333">b = h or z_wave_eq</text>

<rect x="150" y="1500" width="950" height="120" fill="#fbf6ee" stroke="#e0c9a0"/>
<text x="162" y="1522" font-size="15" fill="#111">f(a,b) = 1/K_L + a·b/K_R + a²(3b−a)/(6·EI_pile), a≤b   (flexibility kernel, §4c)</text>
<text x="162" y="1546" font-size="15" fill="#111">δ_fl,0 = F_thrust·f(a,h) + F_wave·f(a,z_wave_eq)     f_aa = f(a,a)</text>
<text x="162" y="1570" font-size="15" fill="#111">F_ml = K_ml,net·δ_fl,0 / (1 + K_ml,net·f_aa)     (redundant-force solve)</text>
<text x="162" y="1594" font-size="15" fill="#111">M_char_net = M_char − F_ml·a          V_char_net = V_char − F_ml</text>

<rect x="1150" y="1500" width="950" height="120" fill="#fdece3" stroke="#b3401f"/>
<text x="1162" y="1522" font-size="15" fill="#111">M_fl = M_char − a·V_char   (fairlead moment — new critical section, §4c)</text>
<text x="1162" y="1546" font-size="15" fill="#111">Check ULS/Buckling/SLS at BOTH sections: governing = max(|M_char_net|, |M_fl|)</text>
<text x="1162" y="1574" font-size="15" fill="#b3401f">Valid only while every line stays in tension — see slack check, §9a</text>

<text x="30" y="1660" font-size="17" font-weight="bold" fill="#0b2545">Panel C — elevation view: pile as a beam with two elastic supports (new)</text>
</svg>
